<?xml version="1.0" ?><svg id="Layer_1" style="enable-background:new 0 0 52 52;" version="1.1" viewBox="0 0 52 52" xml:space="preserve" xmlns="http://www.w3.org/2000/svg" xmlns:xlink="http://www.w3.org/1999/xlink"><style type="text/css">
	.st0{fill:#F90606;}
</style><g><rect height="3.171875" width="8.1992188" x="21.2666626" y="18.4799805"/><rect height="5.0585938" width="8.1992188" x="21.2666626" y="23.6518555"/><polygon points="11.6726685,35.7680664 19.2666626,35.7680664 19.2666626,30.7104492 11.067627,30.7104492  "/><rect height="5.0576172" width="8.1992188" x="21.2666626" y="30.7104492"/><polygon points="31.4658813,42.8266602 39.4909668,42.8266602 40.0946045,37.7680664 31.4658813,37.7680664  "/><rect height="5.1733398" width="8.1992188" x="21.2666626" y="44.8266602"/><rect height="5.0585938" width="8.1992188" x="21.2666626" y="37.7680664"/><polygon points="31.4658813,28.7104492 41.1754761,28.7104492 41.7791138,23.6518555 31.4658813,23.6518555  "/><polygon points="9.9839478,21.6518555 19.2666626,21.6518555 19.2666626,18.4799805 9.6044922,18.4799805  "/><path d="M13.2699585,49.1199951C13.3299561,49.6199951,13.75,50,14.2599487,50h5.0067139v-5.1733398h-6.5103149   L13.2699585,49.1199951z"/><path d="M31.4658813,50h6.2741089c0.5100098,0,0.9400024-0.3800049,1-0.8800049l0.5123291-4.293335h-7.786438V50z"/><polygon points="10.8283691,28.7104492 19.2666626,28.7104492 19.2666626,23.6518555 10.2232056,23.6518555  "/><polygon points="31.4658813,21.6518555 42.0178223,21.6518555 42.3963013,18.4799805 31.4658813,18.4799805  "/><polygon points="12.5170898,42.8266602 19.2666626,42.8266602 19.2666626,37.7680664 11.9119263,37.7680664  "/><polygon points="31.4658813,35.7680664 40.333313,35.7680664 40.9368286,30.7104492 31.4658813,30.7104492  "/><path class="st0" d="M41.0899658,6.710022h-8.7600098V4.7399902C32.3299561,3.2299805,31.0999756,2,29.5899658,2h-7.1799927   c-1.5100098,0-2.7399902,1.2299805-2.7399902,2.7399902V6.710022h-8.7600098c-2.6400146,0-4.7799683,2.1499634-4.7799683,4.7799683   v3.9899902c0,0.5599976,0.4499512,1,1,1h37.7399902c0.5599976,0,1-0.4400024,1-1v-3.9899902   C45.8699951,8.8599854,43.7299805,6.710022,41.0899658,6.710022z M30.3299561,6.710022h-8.6599731V4.7399902   C21.6699829,4.3300171,22,4,22.4099731,4h7.1799927C30,4,30.3299561,4.3300171,30.3299561,4.7399902V6.710022z"/></g></svg>